<svg width="59" height="59" viewBox="0 0 59 59" fill="none" xmlns="http://www.w3.org/2000/svg">
<path fill-rule="evenodd" clip-rule="evenodd" d="M16.3889 13.1111C16.3889 9.63383 17.7702 6.29896 20.229 3.84015C22.6879 1.38134 26.0227 0 29.5 0C32.9773 0 36.3121 1.38134 38.771 3.84015C41.2298 6.29896 42.6111 9.63383 42.6111 13.1111C42.6111 16.5884 41.2298 19.9233 38.771 22.3821C36.3121 24.8409 32.9773 26.2222 29.5 26.2222C26.0227 26.2222 22.6879 24.8409 20.229 22.3821C17.7702 19.9233 16.3889 16.5884 16.3889 13.1111ZM16.3889 32.7778C12.0423 32.7778 7.87371 34.5045 4.80019 37.578C1.72668 40.6515 0 44.8201 0 49.1667C0 51.7746 1.03601 54.2758 2.88012 56.1199C4.72422 57.964 7.22537 59 9.83333 59H49.1667C51.7746 59 54.2758 57.964 56.1199 56.1199C57.964 54.2758 59 51.7746 59 49.1667C59 44.8201 57.2733 40.6515 54.1998 37.578C51.1263 34.5045 46.9577 32.7778 42.6111 32.7778H16.3889Z" fill="white"/>
</svg>
