<svg width="20" height="19" viewBox="0 0 20 19" fill="none" xmlns="http://www.w3.org/2000/svg">
<path d="M7 3C7 2.20435 7.31607 1.44129 7.87868 0.87868C8.44129 0.316071 9.20435 0 10 0C10.7956 0 11.5587 0.316071 12.1213 0.87868C12.6839 1.44129 13 2.20435 13 3C13 3.79565 12.6839 4.55871 12.1213 5.12132C11.5587 5.68393 10.7956 6 10 6C9.20435 6 8.44129 5.68393 7.87868 5.12132C7.31607 4.55871 7 3.79565 7 3ZM16.5 1C15.837 1 15.2011 1.26339 14.7322 1.73223C14.2634 2.20107 14 2.83696 14 3.5C14 4.16304 14.2634 4.79893 14.7322 5.26777C15.2011 5.73661 15.837 6 16.5 6C17.163 6 17.7989 5.73661 18.2678 5.26777C18.7366 4.79893 19 4.16304 19 3.5C19 2.83696 18.7366 2.20107 18.2678 1.73223C17.7989 1.26339 17.163 1 16.5 1ZM3.5 1C2.83696 1 2.20107 1.26339 1.73223 1.73223C1.26339 2.20107 1 2.83696 1 3.5C1 4.16304 1.26339 4.79893 1.73223 5.26777C2.20107 5.73661 2.83696 6 3.5 6C4.16304 6 4.79893 5.73661 5.26777 5.26777C5.73661 4.79893 6 4.16304 6 3.5C6 2.83696 5.73661 2.20107 5.26777 1.73223C4.79893 1.26339 4.16304 1 3.5 1ZM7.625 7C7.06141 7 6.52091 7.22388 6.1224 7.6224C5.72388 8.02091 5.5 8.56141 5.5 9.125V14.5C5.5 15.6935 5.97411 16.8381 6.81802 17.682C7.66193 18.5259 8.80653 19 10 19C11.1935 19 12.3381 18.5259 13.182 17.682C14.0259 16.8381 14.5 15.6935 14.5 14.5V9.125C14.5 8.56141 14.2761 8.02091 13.8776 7.6224C13.4791 7.22388 12.9386 7 12.375 7H7.625ZM4.5 9.125C4.5 8.325 4.801 7.5945 5.296 7.0415C5.15737 7.01386 5.01636 6.99996 4.875 7H2.125C1.56142 7 1.02091 7.22388 0.622398 7.6224C0.223883 8.02091 1.33566e-07 8.56141 1.33566e-07 9.125V14C-0.000166827 14.6044 0.156197 15.1986 0.453865 15.7246C0.751533 16.2507 1.18036 16.6907 1.69858 17.0018C2.2168 17.3129 2.80675 17.4845 3.41098 17.4998C4.01522 17.5152 4.61313 17.3738 5.1465 17.0895C4.72069 16.2929 4.49859 15.4033 4.5 14.5V9.125ZM15.5 14.5C15.5 15.436 15.266 16.3175 14.8535 17.0895C15.3869 17.3738 15.9848 17.5152 16.589 17.4998C17.1932 17.4845 17.7832 17.3129 18.3014 17.0018C18.8196 16.6907 19.2485 16.2507 19.5461 15.7246C19.8438 15.1986 20.0002 14.6044 20 14V9.125C20 8.56141 19.7761 8.02091 19.3776 7.6224C18.9791 7.22388 18.4386 7 17.875 7H15.125C14.9807 7.00033 14.8403 7.01417 14.704 7.0415C15.2174 7.61395 15.5009 8.35606 15.5 9.125V14.5Z" fill="#204AA0"/>
</svg>
